<mxfile host="app.diagrams.net" modified="2023-03-11T08:03:17.425Z" agent="5.0 (Windows NT 10.0; WOW64) AppleWebKit/537.36 (KHTML, like Gecko) Chrome/110.0.0.0 Safari/537.36 OPR/96.0.0.0" etag="3GI0Syx2rMkfwtyam7CA" version="21.0.4" type="github">
  <diagram name="Страница 1" id="NfzQCD53g6c5g2TKJN6z">
    <mxGraphModel dx="1195" dy="638" grid="1" gridSize="10" guides="1" tooltips="1" connect="1" arrows="1" fold="1" page="1" pageScale="1" pageWidth="827" pageHeight="1169" math="0" shadow="0">
      <root>
        <mxCell id="0" />
        <mxCell id="1" parent="0" />
        <mxCell id="tAm12I-yF0H-Qzs44Ven-1" value="Гость" style="shape=umlActor;verticalLabelPosition=bottom;verticalAlign=top;html=1;outlineConnect=0;" vertex="1" parent="1">
          <mxGeometry x="60" y="100" width="30" height="60" as="geometry" />
        </mxCell>
        <mxCell id="tAm12I-yF0H-Qzs44Ven-9" value="Зарегистрироваться" style="ellipse;whiteSpace=wrap;html=1;" vertex="1" parent="1">
          <mxGeometry x="140" y="40" width="120" height="70" as="geometry" />
        </mxCell>
        <mxCell id="tAm12I-yF0H-Qzs44Ven-10" value="Авторизоваться" style="ellipse;whiteSpace=wrap;html=1;" vertex="1" parent="1">
          <mxGeometry x="140" y="140" width="120" height="70" as="geometry" />
        </mxCell>
        <mxCell id="tAm12I-yF0H-Qzs44Ven-11" value="" style="endArrow=none;html=1;rounded=0;exitX=1;exitY=0.3333333333333333;exitDx=0;exitDy=0;exitPerimeter=0;entryX=0;entryY=0.5;entryDx=0;entryDy=0;" edge="1" parent="1" source="tAm12I-yF0H-Qzs44Ven-1" target="tAm12I-yF0H-Qzs44Ven-10">
          <mxGeometry width="50" height="50" relative="1" as="geometry">
            <mxPoint x="190" y="200" as="sourcePoint" />
            <mxPoint x="240" y="150" as="targetPoint" />
          </mxGeometry>
        </mxCell>
        <mxCell id="tAm12I-yF0H-Qzs44Ven-12" value="" style="endArrow=none;html=1;rounded=0;entryX=0;entryY=0.5;entryDx=0;entryDy=0;" edge="1" parent="1" source="tAm12I-yF0H-Qzs44Ven-1" target="tAm12I-yF0H-Qzs44Ven-9">
          <mxGeometry width="50" height="50" relative="1" as="geometry">
            <mxPoint x="110" y="150" as="sourcePoint" />
            <mxPoint x="160" y="100" as="targetPoint" />
          </mxGeometry>
        </mxCell>
        <mxCell id="tAm12I-yF0H-Qzs44Ven-13" value="Пользователь" style="shape=umlActor;verticalLabelPosition=bottom;verticalAlign=top;html=1;outlineConnect=0;" vertex="1" parent="1">
          <mxGeometry x="414" y="190" width="30" height="60" as="geometry" />
        </mxCell>
        <mxCell id="tAm12I-yF0H-Qzs44Ven-14" value="Просмотреть доски" style="ellipse;whiteSpace=wrap;html=1;" vertex="1" parent="1">
          <mxGeometry x="550" y="20" width="90" height="50" as="geometry" />
        </mxCell>
        <mxCell id="tAm12I-yF0H-Qzs44Ven-15" value="Создать новую доску" style="ellipse;whiteSpace=wrap;html=1;" vertex="1" parent="1">
          <mxGeometry x="560" y="145" width="80" height="60" as="geometry" />
        </mxCell>
        <mxCell id="tAm12I-yF0H-Qzs44Ven-16" value="" style="endArrow=none;html=1;rounded=0;entryX=0;entryY=0.5;entryDx=0;entryDy=0;" edge="1" parent="1" source="tAm12I-yF0H-Qzs44Ven-13" target="tAm12I-yF0H-Qzs44Ven-15">
          <mxGeometry width="50" height="50" relative="1" as="geometry">
            <mxPoint x="600" y="180" as="sourcePoint" />
            <mxPoint x="650" y="130" as="targetPoint" />
          </mxGeometry>
        </mxCell>
        <mxCell id="tAm12I-yF0H-Qzs44Ven-17" value="" style="endArrow=none;html=1;rounded=0;entryX=0;entryY=0.5;entryDx=0;entryDy=0;" edge="1" parent="1" source="tAm12I-yF0H-Qzs44Ven-13" target="tAm12I-yF0H-Qzs44Ven-14">
          <mxGeometry width="50" height="50" relative="1" as="geometry">
            <mxPoint x="520" y="60" as="sourcePoint" />
            <mxPoint x="570" y="80" as="targetPoint" />
          </mxGeometry>
        </mxCell>
        <mxCell id="tAm12I-yF0H-Qzs44Ven-18" value="Просмотреть доску" style="ellipse;whiteSpace=wrap;html=1;" vertex="1" parent="1">
          <mxGeometry x="550" y="82.5" width="90" height="55" as="geometry" />
        </mxCell>
        <mxCell id="tAm12I-yF0H-Qzs44Ven-21" value="" style="endArrow=none;html=1;rounded=0;entryX=0;entryY=0.5;entryDx=0;entryDy=0;" edge="1" parent="1" source="tAm12I-yF0H-Qzs44Ven-13" target="tAm12I-yF0H-Qzs44Ven-18">
          <mxGeometry width="50" height="50" relative="1" as="geometry">
            <mxPoint x="490" y="160" as="sourcePoint" />
            <mxPoint x="540" y="110" as="targetPoint" />
          </mxGeometry>
        </mxCell>
        <mxCell id="tAm12I-yF0H-Qzs44Ven-22" value="Добавить на доску колонку" style="ellipse;whiteSpace=wrap;html=1;" vertex="1" parent="1">
          <mxGeometry x="560" y="230" width="80" height="60" as="geometry" />
        </mxCell>
        <mxCell id="tAm12I-yF0H-Qzs44Ven-23" value="Добавить задачу в колонку" style="ellipse;whiteSpace=wrap;html=1;" vertex="1" parent="1">
          <mxGeometry x="560" y="310" width="80" height="60" as="geometry" />
        </mxCell>
        <mxCell id="tAm12I-yF0H-Qzs44Ven-24" value="Переместить задачу" style="ellipse;whiteSpace=wrap;html=1;" vertex="1" parent="1">
          <mxGeometry x="560" y="390" width="80" height="60" as="geometry" />
        </mxCell>
        <mxCell id="tAm12I-yF0H-Qzs44Ven-25" value="" style="endArrow=none;html=1;rounded=0;entryX=0;entryY=0.5;entryDx=0;entryDy=0;" edge="1" parent="1" source="tAm12I-yF0H-Qzs44Ven-13" target="tAm12I-yF0H-Qzs44Ven-22">
          <mxGeometry width="50" height="50" relative="1" as="geometry">
            <mxPoint x="490" y="310" as="sourcePoint" />
            <mxPoint x="540" y="260" as="targetPoint" />
          </mxGeometry>
        </mxCell>
        <mxCell id="tAm12I-yF0H-Qzs44Ven-26" value="" style="endArrow=none;html=1;rounded=0;entryX=0;entryY=0.5;entryDx=0;entryDy=0;" edge="1" parent="1" source="tAm12I-yF0H-Qzs44Ven-13" target="tAm12I-yF0H-Qzs44Ven-23">
          <mxGeometry width="50" height="50" relative="1" as="geometry">
            <mxPoint x="480" y="210" as="sourcePoint" />
            <mxPoint x="540" y="330" as="targetPoint" />
          </mxGeometry>
        </mxCell>
        <mxCell id="tAm12I-yF0H-Qzs44Ven-28" value="" style="endArrow=none;html=1;rounded=0;entryX=0;entryY=0.5;entryDx=0;entryDy=0;" edge="1" parent="1" source="tAm12I-yF0H-Qzs44Ven-13" target="tAm12I-yF0H-Qzs44Ven-24">
          <mxGeometry width="50" height="50" relative="1" as="geometry">
            <mxPoint x="430" y="350" as="sourcePoint" />
            <mxPoint x="480" y="300" as="targetPoint" />
          </mxGeometry>
        </mxCell>
      </root>
    </mxGraphModel>
  </diagram>
</mxfile>
